<svg version="1.1" id="Layer_1" xmlns="http://www.w3.org/2000/svg" xmlns:xlink="http://www.w3.org/1999/xlink" x="0px" y="0px"
	 width="100%" viewBox="0 0 300 200" enable-background="new 0 0 300 200" xml:space="preserve">
<path fill="#FEFEFE" opacity="1.000000" stroke="none" 
	d="
M168.000000,201.000000 
	C112.000008,201.000000 56.500011,201.000000 1.000015,201.000000 
	C1.000010,134.333344 1.000010,67.666695 1.000005,1.000033 
	C100.999969,1.000022 200.999939,1.000022 300.999939,1.000011 
	C300.999939,67.666634 300.999939,134.333267 300.999969,200.999939 
	C256.833344,201.000000 212.666672,201.000000 168.000000,201.000000 
M294.345398,70.554016 
	C281.651794,70.705338 268.958221,70.856659 255.854385,71.432343 
	C255.896378,71.624557 255.938370,71.816772 255.798523,72.930176 
	C255.788177,90.172592 255.749252,107.415138 255.820633,124.657219 
	C255.826462,126.066711 256.584442,127.473083 257.918457,129.045319 
	C270.278992,128.992142 282.639526,128.938965 295.771637,128.868088 
	C295.837097,125.234993 295.902557,121.601891 295.758698,117.427216 
	C295.203857,117.457413 294.648987,117.487610 293.166046,117.315987 
	C285.094238,117.291702 277.022400,117.267418 268.790833,116.298180 
	C268.852020,112.489197 268.913239,108.680206 269.914185,104.844566 
	C277.285461,104.785469 284.656708,104.726364 292.593384,104.858566 
	C292.996521,104.568642 293.399628,104.278725 294.009552,103.512939 
	C293.968811,103.344864 293.928040,103.176788 294.053345,102.131012 
	C293.999847,99.752762 293.946320,97.374512 294.009521,94.479378 
	C293.926971,94.323204 293.844452,94.167038 293.508209,93.370804 
	C292.369751,93.409164 291.231293,93.447533 289.162628,93.296272 
	C282.426697,93.272766 275.690796,93.249252 268.788513,92.302269 
	C268.880035,88.941841 268.971527,85.581406 269.991760,82.240631 
	C278.565033,82.240631 287.138306,82.240631 296.312500,82.240631 
	C295.833923,77.923607 295.446625,74.430077 295.044037,70.973465 
	C295.044037,70.973465 295.068115,70.946800 294.345398,70.554016 
M68.984985,110.498398 
	C68.932091,110.333374 68.879189,110.168350 68.967911,109.177177 
	C68.918442,107.785530 68.868980,106.393890 68.889893,104.483315 
	C68.593491,104.381676 68.297096,104.280029 67.261696,104.014343 
	C66.510880,104.075371 65.760056,104.136391 64.084724,104.026436 
	C46.721798,104.073013 29.358873,104.119583 11.168202,104.086418 
	C10.715169,106.634445 10.262136,109.182472 9.813720,111.704536 
	C11.045234,112.038200 11.506524,112.272079 11.968040,112.272522 
	C30.031090,112.289986 48.094234,112.304611 66.157005,112.230598 
	C67.058151,112.226906 67.956047,111.429649 68.984985,110.498398 
M10.197461,71.358681 
	C10.197461,73.785271 10.197461,76.211861 10.197461,78.622055 
	C30.081743,78.622055 49.453480,78.622055 68.821671,78.622055 
	C68.821671,75.822655 68.821671,73.375275 68.821671,70.467606 
	C61.495365,70.467606 54.368313,70.415215 47.242302,70.479301 
	C35.130428,70.588211 23.019218,70.770462 10.979565,71.003326 
	C10.979565,71.003326 10.918699,70.919495 10.197461,71.358681 
M12.927854,129.030502 
	C30.920517,128.978317 48.913181,128.926132 67.654053,129.017776 
	C68.250626,126.440369 68.847198,123.862961 69.484604,121.109146 
	C49.074760,121.109146 29.724680,121.109146 9.083024,121.109146 
	C10.211493,124.113258 11.106537,126.495956 12.927854,129.030502 
M170.906464,72.222046 
	C166.732880,71.441040 162.559311,70.660034 158.025116,69.811546 
	C158.025116,89.538521 157.994751,107.766953 158.109558,125.994461 
	C158.115646,126.965187 159.346497,127.928192 160.924210,129.034225 
	C164.183075,129.034225 167.441956,129.034225 170.864212,129.034225 
	C170.864212,110.004738 170.864212,91.495750 170.906464,72.222046 
M124.266464,70.648857 
	C115.699196,70.648857 107.131935,70.648857 98.222359,70.648857 
	C98.222359,89.612320 98.201897,108.183884 98.298103,126.754837 
	C98.301910,127.488358 99.417809,128.216125 100.946205,129.047073 
	C109.410423,129.037888 117.880630,129.223297 126.337105,128.962845 
	C134.236740,128.719543 141.135620,122.973549 142.237595,116.269585 
	C143.876709,106.298058 141.177399,101.066765 132.449432,97.300079 
	C138.100372,91.788979 140.287796,86.623573 137.762146,81.203384 
	C135.336411,75.997635 131.580154,71.482758 124.266464,70.648857 
M199.293671,124.287819 
	C214.184265,133.539688 231.639053,131.393127 241.797058,118.780533 
	C238.962570,116.391716 236.124695,114.000053 233.377075,111.684456 
	C223.190979,119.833336 212.372482,120.229523 204.995651,113.017464 
	C197.239166,105.434250 197.735626,96.353745 203.451080,88.464592 
	C209.894943,79.569984 220.292282,79.478310 233.560669,87.651779 
	C236.292572,85.332100 239.043320,82.996437 241.776978,80.675278 
	C230.403717,66.172798 206.650391,66.698090 194.763062,79.126259 
	C182.381409,92.071236 184.056458,112.041855 199.293671,124.287819 
M52.497734,95.785217 
	C57.933960,95.785217 63.370190,95.785217 68.650452,95.785217 
	C68.650452,92.532814 68.650452,89.980072 68.650452,87.431000 
	C49.019638,87.431000 29.776918,87.431000 10.364840,87.431000 
	C10.364840,90.251251 10.364840,92.801666 10.364840,95.785141 
	C24.268179,95.785141 37.883270,95.785141 52.497734,95.785217 
z"/>
<path fill="#035B9A" opacity="1.000000" stroke="none" 
	d="
M125.006050,70.996613 
	C131.580154,71.482758 135.336411,75.997635 137.762146,81.203384 
	C140.287796,86.623573 138.100372,91.788979 132.449432,97.300079 
	C141.177399,101.066765 143.876709,106.298058 142.237595,116.269585 
	C141.135620,122.973549 134.236740,128.719543 126.337105,128.962845 
	C117.880630,129.223297 109.410423,129.037888 100.451141,128.532440 
	C99.949112,111.366554 100.183243,94.709671 99.795181,78.067307 
	C99.671158,72.748329 101.423325,71.643120 106.298264,71.806160 
	C112.518211,72.014198 118.768715,71.308479 125.006050,70.996613 
M128.571960,114.953545 
	C131.442520,108.435738 128.824936,104.136337 121.781181,103.929131 
	C118.341087,103.827942 114.895554,103.911629 111.425507,103.911629 
	C111.425507,108.874550 111.425507,113.257202 111.425507,119.045082 
	C117.348061,117.797737 122.693802,116.671875 128.571960,114.953545 
M111.087173,91.225525 
	C111.582497,92.100967 112.031853,93.696716 112.580811,93.731750 
	C115.537407,93.920410 118.867523,94.514000 121.382019,93.407402 
	C123.420357,92.510345 125.595566,89.433411 125.642868,87.277969 
	C125.681892,85.499657 122.988205,82.677109 120.976692,82.070389 
	C118.012024,81.176163 114.577530,81.839584 111.087936,81.839584 
	C111.087936,85.036972 111.087936,87.662483 111.087173,91.225525 
z"/>
<path fill="#065C9A" opacity="1.000000" stroke="none" 
	d="
M198.989197,124.090111 
	C184.056458,112.041855 182.381409,92.071236 194.763062,79.126259 
	C206.650391,66.698090 230.403717,66.172798 241.776978,80.675278 
	C239.043320,82.996437 236.292572,85.332100 233.560669,87.651779 
	C220.292282,79.478310 209.894943,79.569984 203.451080,88.464592 
	C197.735626,96.353745 197.239166,105.434250 204.995651,113.017464 
	C212.372482,120.229523 223.190979,119.833336 233.377075,111.684456 
	C236.124695,114.000053 238.962570,116.391716 241.797058,118.780533 
	C231.639053,131.393127 214.184265,133.539688 198.989197,124.090111 
z"/>
<path fill="#065E9C" opacity="1.000000" stroke="none" 
	d="
M293.892822,94.996262 
	C293.946320,97.374512 293.999847,99.752762 293.509064,102.564362 
	C286.300323,102.997719 279.633026,102.896088 272.973785,103.082619 
	C271.625000,103.120399 270.306763,104.246735 268.974426,104.871223 
	C268.913239,108.680206 268.852020,112.489197 269.010651,117.140030 
	C274.535919,118.323189 279.837982,118.874443 285.147552,118.960342 
	C294.968475,119.119217 294.970306,119.005722 295.000061,128.885803 
	C282.639526,128.938965 270.278992,128.992142 257.460602,128.502304 
	C257.014069,109.318459 257.025360,90.677628 257.501221,72.023849 
	C269.970276,72.026031 281.974854,72.041183 293.985046,72.508316 
	C293.906250,82.184814 295.019012,80.885048 286.083496,80.989632 
	C282.585205,81.030579 279.077820,80.851242 275.590271,81.049217 
	C273.399414,81.173592 271.237793,81.812775 269.063049,82.220978 
	C268.971527,85.581406 268.880035,88.941841 269.007904,93.135628 
	C270.733765,94.314804 272.235901,94.935303 273.747437,94.959106 
	C280.461090,95.064880 287.177460,94.999657 293.892822,94.996262 
z"/>
<path fill="#015B9A" opacity="1.000000" stroke="none" 
	d="
M170.864212,72.986755 
	C170.864212,91.495750 170.864212,110.004738 170.864212,129.034225 
	C167.441956,129.034225 164.183075,129.034225 160.460480,128.502777 
	C159.995224,111.918961 159.993179,95.866585 159.992386,79.814209 
	C159.991974,71.511421 160.778336,70.842857 169.039246,72.230141 
	C169.672073,72.336411 170.257019,72.727859 170.864212,72.986755 
z"/>
<path fill="#15629D" opacity="1.000000" stroke="none" 
	d="
M51.998047,95.785179 
	C37.883270,95.785141 24.268179,95.785141 10.364840,95.785141 
	C10.364840,92.801666 10.364840,90.251251 10.364840,87.431000 
	C29.776918,87.431000 49.019638,87.431000 68.650452,87.431000 
	C68.650452,89.980072 68.650452,92.532814 68.650452,95.785217 
	C63.370190,95.785217 57.933960,95.785217 51.998047,95.785179 
z"/>
<path fill="#015A9A" opacity="1.000000" stroke="none" 
	d="
M66.905846,128.873947 
	C48.913181,128.926132 30.920517,128.978317 12.465351,128.516586 
	C12.002849,126.218880 12.002849,124.435081 12.002849,122.000336 
	C14.378740,122.000336 16.157221,122.000336 17.935699,122.000336 
	C32.092739,122.000328 46.249775,121.998650 60.406815,122.001045 
	C67.077148,122.002174 67.077148,122.005730 66.905846,128.873947 
z"/>
<path fill="#005B9A" opacity="1.000000" stroke="none" 
	d="
M11.995948,104.166153 
	C29.358873,104.119583 46.721798,104.073013 64.625595,104.465973 
	C65.703812,106.520256 66.241150,108.134995 66.778481,109.749733 
	C65.296013,110.165817 63.815769,110.934006 62.330742,110.943367 
	C47.903381,111.034286 33.475220,110.998672 19.047287,110.997932 
	C12.023531,110.997574 12.023531,110.996414 11.995948,104.166153 
z"/>
<path fill="#135F9B" opacity="1.000000" stroke="none" 
	d="
M10.907731,70.921898 
	C23.019218,70.770462 35.130428,70.588211 47.242302,70.479301 
	C54.368313,70.415215 61.495365,70.467606 68.821671,70.467606 
	C68.821671,73.375275 68.821671,75.822655 68.821671,78.622055 
	C49.453480,78.622055 30.081743,78.622055 10.197461,78.622055 
	C10.197461,76.211861 10.197461,73.785271 10.678359,71.381271 
	C11.430860,71.633667 11.702461,71.863472 11.978305,72.520645 
	C11.499566,76.357605 13.213443,77.102325 16.315985,77.067032 
	C28.414530,76.929382 40.515572,77.011139 52.615685,77.011276 
	C57.210880,77.011330 61.806076,77.011292 66.693840,77.011292 
	C66.830490,74.973228 66.927635,73.524414 67.122353,71.785889 
	C65.594307,71.374321 63.969219,71.154602 62.342976,71.145691 
	C45.197998,71.051773 28.052841,70.991470 10.907731,70.921898 
z"/>
<path fill="#2C689F" opacity="1.000000" stroke="none" 
	d="
M124.636261,70.822731 
	C118.768715,71.308479 112.518211,72.014198 106.298264,71.806160 
	C101.423325,71.643120 99.671158,72.748329 99.795181,78.067307 
	C100.183243,94.709671 99.949112,111.366554 99.985809,128.482178 
	C99.417809,128.216125 98.301910,127.488358 98.298103,126.754837 
	C98.201897,108.183884 98.222359,89.612320 98.222359,70.648857 
	C107.131935,70.648857 115.699196,70.648857 124.636261,70.822731 
z"/>
<path fill="#0F5E9C" opacity="1.000000" stroke="none" 
	d="
M170.885345,72.604401 
	C170.257019,72.727859 169.672073,72.336411 169.039246,72.230141 
	C160.778336,70.842857 159.991974,71.511421 159.992386,79.814209 
	C159.993179,95.866585 159.995224,111.918961 160.001968,128.433060 
	C159.346497,127.928192 158.115646,126.965187 158.109558,125.994461 
	C157.994751,107.766953 158.025116,89.538521 158.025116,69.811546 
	C162.559311,70.660034 166.732880,71.441040 170.885345,72.604401 
z"/>
<path fill="#035192" opacity="1.000000" stroke="none" 
	d="
M11.582075,104.126289 
	C12.023531,110.996414 12.023531,110.997574 19.047287,110.997932 
	C33.475220,110.998672 47.903381,111.034286 62.330742,110.943367 
	C63.815769,110.934006 65.296013,110.165817 66.778481,109.749733 
	C66.241150,108.134995 65.703812,106.520256 65.087860,104.551468 
	C65.760056,104.136391 66.510880,104.075371 67.720734,104.275635 
	C68.343002,104.760796 68.556244,104.915909 68.819511,105.002243 
	C68.868980,106.393890 68.918442,107.785530 68.750130,109.686005 
	C68.640053,110.463844 68.747749,110.732872 68.855453,111.001892 
	C67.956047,111.429649 67.058151,112.226906 66.157005,112.230598 
	C48.094234,112.304611 30.031090,112.289986 11.968040,112.272522 
	C11.506524,112.272079 11.045234,112.038200 9.813720,111.704536 
	C10.262136,109.182472 10.715169,106.634445 11.582075,104.126289 
z"/>
<path fill="#065393" opacity="1.000000" stroke="none" 
	d="
M67.279953,128.945862 
	C67.077148,122.005730 67.077148,122.002174 60.406815,122.001045 
	C46.249775,121.998650 32.092739,122.000328 17.935699,122.000336 
	C16.157221,122.000336 14.378740,122.000336 12.002849,122.000336 
	C12.002849,124.435081 12.002849,126.218880 12.002214,128.440674 
	C11.106537,126.495956 10.211493,124.113258 9.083024,121.109146 
	C29.724680,121.109146 49.074760,121.109146 69.484604,121.109146 
	C68.847198,123.862961 68.250626,126.440369 67.279953,128.945862 
z"/>
<path fill="#004A8E" opacity="1.000000" stroke="none" 
	d="
M295.385864,128.876953 
	C294.970306,119.005722 294.968475,119.119217 285.147552,118.960342 
	C279.837982,118.874443 274.535919,118.323189 269.090515,117.612503 
	C277.022400,117.267418 285.094238,117.291702 293.828125,117.569420 
	C294.982819,117.871498 295.475403,117.920151 295.968018,117.968796 
	C295.902557,121.601891 295.837097,125.234993 295.385864,128.876953 
z"/>
<path fill="#004A8E" opacity="1.000000" stroke="none" 
	d="
M257.036682,72.036804 
	C257.025360,90.677628 257.014069,109.318459 256.997864,128.420090 
	C256.584442,127.473083 255.826462,126.066711 255.820633,124.657219 
	C255.749252,107.415138 255.788177,90.172592 256.153595,72.473633 
	C256.684662,72.023651 256.860687,72.030228 257.036682,72.036804 
z"/>
<path fill="#004A8E" opacity="1.000000" stroke="none" 
	d="
M269.444305,104.857895 
	C270.306763,104.246735 271.625000,103.120399 272.973785,103.082619 
	C279.633026,102.896088 286.300323,102.997719 293.426025,103.003204 
	C293.928040,103.176788 293.968811,103.344864 293.656555,103.756248 
	C292.878387,104.222130 292.453186,104.444702 292.027985,104.667267 
	C284.656708,104.726364 277.285461,104.785469 269.444305,104.857895 
z"/>
<path fill="#065393" opacity="1.000000" stroke="none" 
	d="
M269.527405,82.230804 
	C271.237793,81.812775 273.399414,81.173592 275.590271,81.049217 
	C279.077820,80.851242 282.585205,81.030579 286.083496,80.989632 
	C295.019012,80.885048 293.906250,82.184814 294.219421,72.379272 
	C294.651855,71.511017 294.855621,71.223778 295.059357,70.936539 
	C295.446625,74.430077 295.833923,77.923607 296.312500,82.240631 
	C287.138306,82.240631 278.565033,82.240631 269.527405,82.230804 
z"/>
<path fill="#004A8E" opacity="1.000000" stroke="none" 
	d="
M293.951172,94.737823 
	C287.177460,94.999657 280.461090,95.064880 273.747437,94.959106 
	C272.235901,94.935303 270.733765,94.314804 269.091064,93.597366 
	C275.690796,93.249252 282.426697,93.272766 289.888123,93.568039 
	C291.663086,93.896820 292.712494,93.953850 293.761932,94.010880 
	C293.844452,94.167038 293.926971,94.323204 293.951172,94.737823 
z"/>
<path fill="#003E82" opacity="1.000000" stroke="none" 
	d="
M295.051697,70.955002 
	C294.855621,71.223778 294.651855,71.511017 294.213745,71.927292 
	C281.974854,72.041183 269.970276,72.026031 257.501221,72.023849 
	C256.860687,72.030228 256.684662,72.023651 256.244507,72.013031 
	C255.938370,71.816772 255.896378,71.624557 256.508698,71.248779 
	C269.798035,71.025742 282.433075,70.986275 295.068115,70.946800 
	C295.068115,70.946800 295.044037,70.973465 295.051697,70.955002 
z"/>
<path fill="#065393" opacity="1.000000" stroke="none" 
	d="
M294.706757,70.750412 
	C282.433075,70.986275 269.798035,71.025742 256.713806,71.036606 
	C268.958221,70.856659 281.651794,70.705338 294.706757,70.750412 
z"/>
<path fill="#065E9C" opacity="1.000000" stroke="none" 
	d="
M293.635071,93.690842 
	C292.712494,93.953850 291.663086,93.896820 290.353241,93.662842 
	C291.231293,93.447533 292.369751,93.409164 293.635071,93.690842 
z"/>
<path fill="#065E9C" opacity="1.000000" stroke="none" 
	d="
M292.310669,104.762924 
	C292.453186,104.444702 292.878387,104.222130 293.553162,103.994179 
	C293.399628,104.278725 292.996521,104.568642 292.310669,104.762924 
z"/>
<path fill="#065E9C" opacity="1.000000" stroke="none" 
	d="
M295.863342,117.698013 
	C295.475403,117.920151 294.982819,117.871498 294.292175,117.670334 
	C294.648987,117.487610 295.203857,117.457413 295.863342,117.698013 
z"/>
<path fill="#15629D" opacity="1.000000" stroke="none" 
	d="
M68.854706,104.742783 
	C68.556244,104.915909 68.343002,104.760796 68.090240,104.357651 
	C68.297096,104.280029 68.593491,104.381676 68.854706,104.742783 
z"/>
<path fill="#15629D" opacity="1.000000" stroke="none" 
	d="
M68.920219,110.750145 
	C68.747749,110.732872 68.640053,110.463844 68.679321,110.099075 
	C68.879189,110.168350 68.932091,110.333374 68.920219,110.750145 
z"/>
<path fill="#F8FBFB" opacity="1.000000" stroke="none" 
	d="
M128.305756,115.249771 
	C122.693802,116.671875 117.348061,117.797737 111.425507,119.045082 
	C111.425507,113.257202 111.425507,108.874550 111.425507,103.911629 
	C114.895554,103.911629 118.341087,103.827942 121.781181,103.929131 
	C128.824936,104.136337 131.442520,108.435738 128.305756,115.249771 
z"/>
<path fill="#F6F9FA" opacity="1.000000" stroke="none" 
	d="
M111.087555,90.756760 
	C111.087936,87.662483 111.087936,85.036972 111.087936,81.839584 
	C114.577530,81.839584 118.012024,81.176163 120.976692,82.070389 
	C122.988205,82.677109 125.681892,85.499657 125.642868,87.277969 
	C125.595566,89.433411 123.420357,92.510345 121.382019,93.407402 
	C118.867523,94.514000 115.537407,93.920410 112.580811,93.731750 
	C112.031853,93.696716 111.582497,92.100967 111.087555,90.756760 
z"/>
<path fill="#005B9A" opacity="1.000000" stroke="none" 
	d="
M67.024780,72.075592 
	C66.927635,73.524414 66.830490,74.973228 66.693840,77.011292 
	C61.806076,77.011292 57.210880,77.011330 52.615685,77.011276 
	C40.515572,77.011139 28.414530,76.929382 16.315985,77.067032 
	C13.213443,77.102325 11.499566,76.357605 12.448897,72.485504 
	C30.951757,72.040527 48.988266,72.058060 67.024780,72.075592 
z"/>
<path fill="#003E82" opacity="1.000000" stroke="none" 
	d="
M67.122345,71.785881 
	C48.988266,72.058060 30.951757,72.040527 12.444656,72.058128 
	C11.702461,71.863472 11.430860,71.633667 11.038979,71.161682 
	C10.918699,70.919495 10.979565,71.003326 10.943647,70.962616 
	C28.052841,70.991470 45.197998,71.051773 62.342976,71.145691 
	C63.969219,71.154602 65.594307,71.374321 67.122345,71.785881 
z"/>
</svg>